<?xml version="1.0" standalone="no"?>
<!DOCTYPE svg PUBLIC "-//W3C//DTD SVG 20010904//EN"
 "http://www.w3.org/TR/2001/REC-SVG-20010904/DTD/svg10.dtd">
<svg version="1.0" xmlns="http://www.w3.org/2000/svg"
 width="1024.000000pt" height="1024.000000pt" viewBox="0 0 1024.000000 1024.000000"
 preserveAspectRatio="xMidYMid meet">
<metadata>
Created by potrace 1.14, written by Peter Selinger 2001-2017
</metadata>
<g transform="translate(0.000000,1024.000000) scale(0.100000,-0.100000)"
fill="#000000" stroke="none">
<path d="M4770 10109 c-451 -27 -991 -146 -1422 -314 -773 -302 -1358 -701
-1921 -1310 -295 -319 -548 -684 -746 -1075 -105 -207 -110 -218 -195 -435
-261 -669 -368 -1265 -353 -1980 14 -697 160 -1324 458 -1978 420 -919 1146
-1715 2029 -2224 799 -460 1707 -692 2624 -670 335 8 543 31 858 93 814 160
1587 529 2223 1060 120 100 304 268 359 327 17 18 60 64 97 104 169 180 405
479 533 676 125 192 340 584 384 702 6 17 40 104 76 195 147 375 255 794 305
1180 43 335 57 631 41 915 -39 722 -206 1349 -535 2005 -252 504 -533 888
-947 1297 -293 290 -540 485 -883 697 -278 173 -461 265 -780 391 -432 172
-827 270 -1305 325 -207 24 -662 34 -900 19z m660 -339 c483 -29 956 -136
1418 -321 581 -232 1091 -565 1546 -1009 784 -765 1248 -1731 1373 -2860 21
-196 24 -698 5 -875 -32 -287 -77 -544 -134 -755 -155 -584 -414 -1123 -763
-1595 -355 -480 -812 -897 -1330 -1215 -135 -83 -454 -247 -590 -304 -606
-254 -1304 -389 -1924 -373 -704 18 -1390 189 -1996 497 -477 242 -834 499
-1211 875 -758 754 -1221 1732 -1340 2827 -23 208 -23 662 0 888 91 923 431
1759 1009 2486 216 271 566 610 842 814 329 245 686 443 1065 593 452 178 811
265 1310 317 197 20 484 24 720 10z"/>
<path d="M4755 8959 c-154 -15 -413 -59 -575 -99 -526 -130 -1028 -383 -1485
-747 -153 -122 -442 -412 -569 -573 -367 -462 -605 -942 -741 -1495 -85 -344
-110 -557 -109 -935 0 -315 16 -477 74 -762 244 -1192 1059 -2221 2156 -2722
525 -240 1053 -355 1626 -356 330 0 601 34 928 115 883 222 1674 757 2202
1490 71 99 178 265 178 276 0 9 -69 53 -74 48 -2 -2 -49 -71 -103 -154 -474
-715 -1144 -1222 -1975 -1494 -687 -224 -1387 -248 -2092 -70 -229 58 -500
156 -678 245 l-88 44 0 680 0 680 433 0 432 -1 522 -450 c500 -431 522 -451
513 -475 -16 -41 -11 -135 9 -180 95 -209 383 -216 485 -12 64 128 3 299 -126
358 -50 23 -166 26 -213 6 l-30 -12 -545 468 -545 468 -467 0 -468 0 0 120 0
120 583 -1 582 0 687 -607 c631 -558 686 -609 680 -632 -4 -14 -7 -57 -7 -95
0 -86 29 -142 102 -196 63 -48 112 -63 183 -56 71 6 126 34 174 87 51 56 66
97 66 175 0 109 -51 194 -142 239 -61 31 -156 35 -215 11 -35 -15 -38 -14 -62
8 -14 13 -335 297 -713 631 l-687 606 -616 0 -615 0 0 120 0 120 508 0 507 0
20 -36 c10 -19 36 -51 58 -70 101 -92 236 -100 339 -21 121 93 142 250 49 373
-49 65 -106 96 -190 102 -54 3 -77 0 -119 -18 -54 -23 -125 -91 -142 -135
l-10 -25 -510 0 -510 0 0 90 0 90 -355 0 c-309 0 -355 -2 -355 -15 0 -8 -16
-33 -36 -55 -74 -82 -202 -88 -285 -13 -46 41 -74 117 -65 172 5 36 3 39 -40
71 -58 41 -127 135 -149 201 -29 86 -3 181 71 268 20 22 113 106 209 186 245
204 278 249 254 340 -26 98 -86 158 -215 216 -66 30 -66 30 -115 14 -110 -37
-220 26 -259 148 -25 80 34 199 117 234 45 18 121 16 168 -6 45 -20 92 -70
101 -107 l6 -24 474 0 474 0 0 90 0 90 525 0 525 0 0 85 0 85 -525 0 -525 0 0
120 0 120 598 0 597 0 660 586 c363 323 688 611 723 642 l63 55 35 -16 c47
-23 147 -22 199 2 162 73 215 267 112 403 -50 65 -113 100 -195 106 -86 6
-154 -21 -211 -83 -61 -66 -74 -105 -69 -205 l5 -85 -696 -617 -696 -618 -562
0 -563 0 0 120 0 120 449 0 449 0 524 456 c288 251 530 463 539 470 14 12 21
12 52 -1 58 -24 168 -20 225 9 90 46 141 128 142 226 0 74 -14 121 -53 172
-99 131 -323 132 -416 2 -49 -67 -63 -118 -57 -199 l5 -70 -515 -447 -514
-448 -414 0 -414 0 -7 103 c-3 56 -5 365 -3 687 l3 585 101 51 c275 137 673
259 1049 320 139 23 200 27 463 31 194 4 348 1 430 -6 727 -67 1415 -340 1987
-790 306 -240 580 -540 809 -884 104 -155 100 -152 150 -113 17 14 17 17 -13
70 -42 73 -189 282 -265 376 -373 464 -775 786 -1306 1049 -273 135 -476 210
-760 281 -170 43 -409 85 -565 100 -120 11 -624 11 -750 -1z m864 -744 c55
-28 79 -127 44 -186 -24 -41 -93 -73 -139 -64 -117 21 -152 170 -58 244 32 25
110 28 153 6z m657 -64 c43 -26 68 -82 61 -140 -4 -37 -12 -52 -43 -78 -32
-28 -45 -33 -90 -33 -45 0 -59 5 -89 31 -42 37 -59 90 -45 139 11 37 44 78 75
90 35 15 99 11 131 -9z m-1498 -4001 c42 -26 66 -81 59 -135 -8 -58 -70 -115
-127 -115 -97 0 -164 81 -140 170 9 35 50 82 80 93 34 12 97 6 128 -13z m1511
-1814 c114 -60 76 -239 -55 -254 -140 -15 -210 159 -98 247 32 25 110 29 153
7z m-608 -115 c34 -34 39 -44 39 -85 0 -62 -19 -96 -68 -124 -47 -26 -82 -28
-129 -5 -71 33 -96 133 -51 199 29 43 51 52 117 53 49 1 56 -2 92 -38z"/>
<path d="M8233 6203 l-161 -481 107 -7 108 -7 -4 -152 c-2 -83 -8 -260 -13
-392 -6 -133 -10 -272 -10 -308 l0 -66 151 0 152 0 -7 143 c-18 374 -25 762
-15 772 5 5 67 12 137 15 l128 5 -197 465 c-109 256 -201 472 -207 480 -6 10
-55 -125 -169 -467z"/>
<path d="M2457 5769 c-10 -18 -16 -33 -15 -34 2 -2 36 -19 77 -40 40 -20 95
-58 121 -84 73 -73 109 -191 80 -266 -15 -41 -102 -126 -260 -259 -239 -200
-275 -246 -275 -356 0 -80 26 -130 109 -208 l56 -53 46 40 c69 60 127 73 205
46 48 -17 93 -55 115 -97 l15 -28 349 0 350 0 0 100 0 100 1264 0 1264 0 26
-44 c51 -87 134 -135 232 -136 34 0 77 6 95 14 54 23 112 73 141 124 24 40 28
58 28 122 0 88 -19 137 -75 192 -58 58 -98 73 -191 73 -72 0 -86 -3 -130 -30
-30 -19 -64 -53 -88 -88 l-40 -57 -1263 0 -1263 0 0 105 0 105 930 0 930 0 0
85 0 85 -930 0 -930 0 0 115 0 115 1068 0 1068 0 18 -30 c48 -82 169 -139 264
-125 253 38 317 386 91 500 -39 20 -63 25 -124 25 -121 0 -200 -50 -247 -157
l-19 -43 -1059 0 -1060 0 0 110 0 110 -477 0 -478 0 -18 -31z m3410 -124 c47
-19 73 -54 80 -105 8 -54 -2 -82 -39 -119 -88 -86 -232 -24 -232 100 0 58 23
95 75 121 42 22 68 22 116 3z m422 -810 c40 -20 75 -94 66 -137 -17 -77 -64
-118 -135 -118 -107 0 -168 94 -126 195 28 66 126 96 195 60z"/>
<path d="M7537 5490 c-164 -63 -273 -121 -355 -190 -95 -79 -125 -126 -130
-201 -4 -57 -2 -63 33 -114 50 -74 134 -134 290 -210 222 -108 388 -151 718
-185 348 -36 681 -25 917 31 177 41 400 148 505 242 76 68 98 113 93 192 -5
80 -31 116 -139 191 -43 31 -77 60 -74 64 3 5 19 11 35 15 16 4 32 10 35 14 4
8 -195 68 -453 135 -85 22 -132 31 -130 23 3 -7 20 -59 39 -116 l34 -104 107
5 107 6 76 -51 c85 -56 141 -118 156 -171 8 -29 6 -44 -9 -78 -66 -149 -374
-251 -845 -280 -154 -9 -226 -9 -331 0 -281 25 -546 125 -632 238 -38 49 -40
115 -6 159 50 63 174 140 307 190 135 52 141 33 -49 146 -92 54 -169 99 -170
98 0 0 -58 -22 -129 -49z"/>
<path d="M8335 4491 l-80 -6 -26 -355 c-15 -195 -30 -406 -34 -467 l-7 -113
212 0 212 0 -7 188 c-3 103 -10 286 -16 407 -5 121 -9 250 -9 288 l0 67 -82
-2 c-46 -1 -119 -4 -163 -7z"/>
</g>
</svg>
